<svg xmlns="http://www.w3.org/2000/svg" width="150" height="37" viewBox="0 0 150 37">
  <defs>
    <style>
      .cls-1 {
        fill: #ffffff;
        fill-rule: evenodd;
      }
    </style>
  </defs>
  <path class="cls-1" d="M82.064,36.031a0.5,0.5,0,0,0-.512-0.338,0.551,0.551,0,0,0-.168.044,0.763,0.763,0,0,1-.224.049,1.632,1.632,0,0,1-1.077-.384L76.75,33.137h4.468c0.013,0,.023,0,0.034,0h0.279a0.432,0.432,0,0,0,.378-0.194l0.009-.015a0.408,0.408,0,0,0-.062-0.474,9.427,9.427,0,0,0-.718-0.662,0.339,0.339,0,0,0-.237-0.1,0.371,0.371,0,0,0-.283.145l-0.416.5h-4.14V31.375h4.067a0.4,0.4,0,0,0,0-.805H76.062V29.8h4.619a0.322,0.322,0,0,0,.033,0h0.28a0.433,0.433,0,0,0,.378-0.194l0.009-.015a0.406,0.406,0,0,0-.063-0.474,9.239,9.239,0,0,0-.718-0.662,0.337,0.337,0,0,0-.237-0.1,0.371,0.371,0,0,0-.283.146l-0.416.5H77.53L78.5,27.58h2.717c0.013,0,.023,0,0.034,0h0.279a0.432,0.432,0,0,0,.378-0.194l0.009-.015a0.407,0.407,0,0,0-.062-0.474,9.448,9.448,0,0,0-.718-0.662,0.337,0.337,0,0,0-.237-0.1,0.371,0.371,0,0,0-.283.145l-0.416.5H78.494l0.5-.769,0.626-.074a0.37,0.37,0,0,0,.275-0.158,0.336,0.336,0,0,0,.042-0.256c-0.027-.251-0.074-0.532-0.146-0.877a0.428,0.428,0,0,0-.381-0.4H79.392c-0.01,0-.02,0-0.03,0a0.4,0.4,0,0,0-.329.19l-1.516,2.338H77.231V24.268a0.439,0.439,0,0,0-.877,0v2.507h-1.42V24.268a0.439,0.439,0,0,0-.876,0v2.507H73.2c0.444-.665-0.562-1.6-0.562-1.6a3.432,3.432,0,0,0-.814-0.569,0.371,0.371,0,0,0-.454.107,0.29,0.29,0,0,0,.013.384,5.575,5.575,0,0,1,.5.624,4.475,4.475,0,0,1,.268.54c0.062,0.143.11,0.29,0.186,0.431a0.433,0.433,0,0,0,.054.079H69.728a0.373,0.373,0,0,0-.294.126,0.409,0.409,0,0,0-.1.268,0.393,0.393,0,0,0,.389.411h3L73.7,29H70.15a0.372,0.372,0,0,0-.293.126,0.407,0.407,0,0,0-.1.268,0.392,0.392,0,0,0,.388.411h4.906v0.766H71.045a0.4,0.4,0,0,0,0,.805h4.011v0.957H69.728a0.373,0.373,0,0,0-.294.126,0.409,0.409,0,0,0-.1.268,0.393,0.393,0,0,0,.389.412h4.659c-0.984,1.7-3,2.285-4.949,2.848l-0.077.022a0.335,0.335,0,0,0-.239.382,0.352,0.352,0,0,0,.351.308,0.423,0.423,0,0,0,.061,0c2.091-.455,4.206-1.048,5.522-2.687v1.286l-0.3.245a0.373,0.373,0,0,0-.145.282,0.336,0.336,0,0,0,.1.238,9.433,9.433,0,0,0,.662.719,0.405,0.405,0,0,0,.473.062l0.015-.009a0.431,0.431,0,0,0,.194-0.378h0V34.76a0.011,0.011,0,0,1,0,0V33.846l3.419,2.326a2.435,2.435,0,0,0,1.735.574h0a1.965,1.965,0,0,0,.621-0.157,0.151,0.151,0,0,0,.032-0.016A0.456,0.456,0,0,0,82.064,36.031ZM74.681,29L73.708,27.58h3.818L76.553,29H74.681ZM63.363,24.012H62.946a0.361,0.361,0,0,0-.281.124,0.4,0.4,0,0,0-.091.26,0.375,0.375,0,0,0,.372.393h0.331a0.326,0.326,0,0,1,.3.368v7.812a0.532,0.532,0,0,0,.547.552,0.569,0.569,0,0,0,.407-0.166,0.56,0.56,0,0,0,.153-0.415v-7.6A1.194,1.194,0,0,0,63.363,24.012Zm4.167,0.812a9.5,9.5,0,0,0-.661-0.719,0.464,0.464,0,0,0-.185-0.1,0.662,0.662,0,0,0-.22-0.038,0.55,0.55,0,0,0-.578.556v8.642a2.585,2.585,0,0,1-.766,2.015,5.726,5.726,0,0,1-1.218.85c-0.013.007-.314,0.156-0.487,0.256a0.467,0.467,0,0,0-.325.417,0.333,0.333,0,0,0,.343.3h0.01a1.334,1.334,0,0,0,.52-0.162,10.37,10.37,0,0,0,1.856-1.15,3.217,3.217,0,0,0,.924-1.158,4.753,4.753,0,0,0,.307-1.91V25.708l0.438-.364a0.371,0.371,0,0,0,.146-0.283A0.34,0.34,0,0,0,67.53,24.823ZM61.894,32.6a0.428,0.428,0,0,0-.536-0.125l-0.014.009c-0.009.006-.015,0.013-0.023,0.019a0.4,0.4,0,0,0-.173.339v0.242h-4.2a1.16,1.16,0,0,0-.439.072c0.127-.336.241-0.677,0.337-1.017h4.241a0.428,0.428,0,0,0,.258.088,0.392,0.392,0,0,0,.405-0.4v-2.3l0.485-.4a0.372,0.372,0,0,0,.145-0.282,0.338,0.338,0,0,0-.1-0.238c-0.16-.2-0.351-0.405-0.6-0.656a0.428,0.428,0,0,0-.536-0.125l-0.015.009c-0.009.006-.015,0.013-0.023,0.019a0.4,0.4,0,0,0-.173.339V28.42H56.741a0.436,0.436,0,0,0-.045,0,0.684,0.684,0,0,0-.72.7V31.04l-0.01.338a3.711,3.711,0,0,1-.089.767,13.085,13.085,0,0,1-1.611,3.662,0.734,0.734,0,0,0-.109.576,0.263,0.263,0,0,0,.152.166,0.324,0.324,0,0,0,.117.021,0.616,0.616,0,0,0,.466-0.3,13.512,13.512,0,0,0,1.3-2.334V35.7l-0.008.449a0.655,0.655,0,0,0,.166.5A0.928,0.928,0,0,0,57,36.8h4.456a0.454,0.454,0,0,0,.106.014,0.392,0.392,0,0,0,.4-0.4v-0.12h0V34.176l0.484-.4a0.374,0.374,0,0,0,.146-0.283,0.34,0.34,0,0,0-.1-0.238C62.334,33.057,62.142,32.847,61.894,32.6Zm-4.923-3.371h3.962v0.6H56.971v-0.6Zm0,1.4h3.962v0.7H56.971v-0.7Zm4.177,5.36H57.171v-2.1h3.978v2.1ZM63.006,27.3a4.141,4.141,0,0,0-.725-0.8,14.09,14.09,0,0,0-2.1-1.443c-0.293-.17-0.573-0.318-0.814-0.441a0.4,0.4,0,0,0,.193-0.346,0.366,0.366,0,0,0-.372-0.384s-0.727,0-.737.006a0.516,0.516,0,0,0-.4.124,0.8,0.8,0,0,0-.225.37l-0.116.311a7.408,7.408,0,0,1-.335.7,9.427,9.427,0,0,1-1.116,1.484,13.052,13.052,0,0,1-1.555,1.449,0.735,0.735,0,0,0-.336.506,0.27,0.27,0,0,0,.1.216,0.357,0.357,0,0,0,.232.079,0.736,0.736,0,0,0,.41-0.152,12.873,12.873,0,0,0,1.537-1.294h4.06a0.4,0.4,0,0,0,0-.805h-3.3A10.274,10.274,0,0,0,58.3,25.7a4.85,4.85,0,0,0,.388-0.723L58.716,25c0.126,0.075.514,0.323,0.859,0.574,0.319,0.231.572,0.441,0.77,0.6a10.073,10.073,0,0,1,1.036.983,6.084,6.084,0,0,1,.427.494c0.1,0.14.208,0.284,0.324,0.418a0.543,0.543,0,0,0,.3.186,0.631,0.631,0,0,0,.628-0.3A0.59,0.59,0,0,0,63.006,27.3Zm33.47,7.684a0.513,0.513,0,0,0-.5-0.394,0.563,0.563,0,0,0-.176.03,0.784,0.784,0,0,1-.234.03A1.571,1.571,0,0,1,94.5,34.16L91.71,31.551a6.155,6.155,0,0,0,1.721-3.83V27.7a0.653,0.653,0,0,0-.181-0.479,0.579,0.579,0,0,0-.418-0.191h0l-0.551-.014H87.786l-0.341-.41a0.369,0.369,0,0,0-.282-0.146,0.338,0.338,0,0,0-.238.1,9.416,9.416,0,0,0-.718.662,0.407,0.407,0,0,0-.062.474l0.009,0.015a0.431,0.431,0,0,0,.378.194h5.591c0.01,0,.016,0,0.017,0s0,0.015,0,.015c-0.143,1.628-1.062,3.014-2.892,4.362a21.746,21.746,0,0,1-3.056,1.843c-0.189.091-.379,0.185-0.57,0.28-0.468.232-.951,0.473-1.452,0.667a0.423,0.423,0,0,0-.251.529,0.376,0.376,0,0,0,.365.242,0.575,0.575,0,0,0,.182-0.031A25.782,25.782,0,0,0,90,33a9.677,9.677,0,0,0,.855-0.656,0.144,0.144,0,0,0,.151-0.068l2.8,2.624a2.512,2.512,0,0,0,1.729.747h0a2.026,2.026,0,0,0,.651-0.105,0.146,0.146,0,0,0,.035-0.013A0.469,0.469,0,0,0,96.476,34.985Zm11.339-6.625a0.472,0.472,0,0,0-.381-0.2,0.419,0.419,0,0,0-.382.246,1.451,1.451,0,0,1-1.383.612h-7.64a0.424,0.424,0,0,0-.44.434,0.432,0.432,0,0,0,.44.443h4.318c0,0.121,0,.225.006,0.329,0,0.125.008,0.249,0.008,0.407,0.014,2.456-2.843,4.587-4.647,5.353a0.138,0.138,0,0,0-.022.011,0.378,0.378,0,0,0-.158.433,0.39,0.39,0,0,0,.37.288,0.4,0.4,0,0,0,.164-0.036c2.619-1.055,5.443-3.19,5.513-6.01a5.442,5.442,0,0,0,.018-0.617c0-.049,0-0.1,0-0.158h2.072a2.331,2.331,0,0,0,2.177-1.1,0.153,0.153,0,0,0,.015-0.029A0.437,0.437,0,0,0,107.815,28.36Zm-8.476-1.237a0.432,0.432,0,0,0,.378.194h5.866a0.423,0.423,0,0,0,.44-0.434,0.432,0.432,0,0,0-.44-0.443h-4.6l-0.353-.427a0.373,0.373,0,0,0-.283-0.145,0.338,0.338,0,0,0-.237.1,9.506,9.506,0,0,0-.719.662,0.407,0.407,0,0,0-.062.474Zm18.684,2.682a0.519,0.519,0,0,0-.418-0.209,0.509,0.509,0,0,0-.453.278,1.371,1.371,0,0,1-1.268.555H110.02l-0.245-.3a0.373,0.373,0,0,0-.282-0.146,0.337,0.337,0,0,0-.238.1,9.134,9.134,0,0,0-.718.662,0.405,0.405,0,0,0-.062.474,0.046,0.046,0,0,0,.008.015,0.433,0.433,0,0,0,.378.194h7.023a2.32,2.32,0,0,0,2.177-1.158,0.2,0.2,0,0,0,.016-0.033A0.475,0.475,0,0,0,118.023,29.805Zm18.759-.025h-3.44l-0.4-.485a0.372,0.372,0,0,0-.282-0.145,0.339,0.339,0,0,0-.238.1c-0.2.159-.405,0.351-0.654,0.6a0.426,0.426,0,0,0-.126.536l0.008,0.015c0.006,0.009.014,0.015,0.02,0.023a0.4,0.4,0,0,0,.338.173h4.259v1.715h-4.216a0.389,0.389,0,0,0-.386.407,0.381,0.381,0,0,0,.386.4h4.216v1.844h-4.346a0.388,0.388,0,0,0-.3.133,0.422,0.422,0,0,0-.1.274,0.385,0.385,0,0,0,.4.4h4.922a0.569,0.569,0,0,0,.545-0.575V30.356A0.536,0.536,0,0,0,136.782,29.781ZM30.416,35.25l-5-5.162,3.052-2.207,1.188-.851a0.988,0.988,0,0,0,.089-0.058,5.692,5.692,0,0,0,.773-0.6A0.406,0.406,0,0,0,30.58,25.9a0.087,0.087,0,0,0-.009-0.015,0.428,0.428,0,0,0-.378-0.194H28.5a0.144,0.144,0,0,0-.111.235l0.293,0.354a0.57,0.57,0,0,1-.109.735l-4.735,3.421V25.727h0a0.4,0.4,0,0,0-.244-0.338l-0.015-.01a0.521,0.521,0,0,0-.543.09c-0.28.28-.556,0.56-0.729,0.774a0.339,0.339,0,0,0-.1.238,0.374,0.374,0,0,0,.146.283l0.3,0.246v7.674l-0.3.246a0.369,0.369,0,0,0-.146.283,0.343,0.343,0,0,0,.1.238c0.173,0.211.449,0.493,0.729,0.774a0.53,0.53,0,0,0,.543.09,0.094,0.094,0,0,0,.015-0.01,0.414,0.414,0,0,0,.248-0.446V31.225l0.594-.428,3.881,4.014,0,0,0.142,0.147a0.618,0.618,0,0,1,.189.378,0.4,0.4,0,0,1-.073.235l-0.185.222a0.144,0.144,0,0,0,.111.235h1.689a0.426,0.426,0,0,0,.378-0.195,0.034,0.034,0,0,0,.009-0.014,0.406,0.406,0,0,0-.061-0.474C30.485,35.314,30.45,35.281,30.416,35.25Zm10.9-9.368a0.432,0.432,0,0,0-.379-0.194h-1.69a0.144,0.144,0,0,0-.13.083,0.142,0.142,0,0,0,.02.152l0.517,0.625a0.689,0.689,0,0,1,.112.527,1.066,1.066,0,0,1-.116.281l-2.7,4.19-2.434-4.707a0.781,0.781,0,0,1-.1-0.378,0.54,0.54,0,0,1,.111-0.29l0.205-.248a0.143,0.143,0,0,0-.11-0.235H32.927a0.433,0.433,0,0,0-.379.194L32.54,25.9a0.407,0.407,0,0,0,.063.474,3.68,3.68,0,0,0,.553.445l3.157,6.1v1.773l-0.3.246a0.365,0.365,0,0,0-.145.283,0.342,0.342,0,0,0,.1.238c0.173,0.211.448,0.493,0.729,0.774a0.531,0.531,0,0,0,.543.09,0.079,0.079,0,0,0,.015-0.01,0.417,0.417,0,0,0,.247-0.446v-4l2.729-4.243,0.563-.868a3.389,3.389,0,0,0,.458-0.378,0.407,0.407,0,0,0,.061-0.474Zm5.649-.447a4.624,4.624,0,0,0-3.39,1.373,5.542,5.542,0,0,0-1.554,4.042,5.525,5.525,0,0,0,1.569,4.1,4.6,4.6,0,0,0,3.376,1.372,4.523,4.523,0,0,0,3.361-1.358,5.579,5.579,0,0,0,1.569-4.14,5.506,5.506,0,0,0-1.555-4.015A4.606,4.606,0,0,0,46.963,25.435Zm0,10.072a3.071,3.071,0,0,1-2.814-1.673,5.988,5.988,0,0,1-.7-3.011,5.47,5.47,0,0,1,.9-3.255,3.171,3.171,0,0,1,5.089-.163,5.412,5.412,0,0,1,1.02,3.472,5.375,5.375,0,0,1-.912,3.28A3.055,3.055,0,0,1,46.963,35.507ZM15.275,25.435a4.626,4.626,0,0,0-3.39,1.373,5.541,5.541,0,0,0-1.554,4.042,5.525,5.525,0,0,0,1.569,4.1,4.6,4.6,0,0,0,3.375,1.372,4.525,4.525,0,0,0,3.361-1.358,5.578,5.578,0,0,0,1.569-4.14,5.507,5.507,0,0,0-1.553-4.015A4.61,4.61,0,0,0,15.275,25.435Zm0,10.072a3.071,3.071,0,0,1-2.814-1.673,5.985,5.985,0,0,1-.7-3.011,5.472,5.472,0,0,1,.9-3.255,3.171,3.171,0,0,1,5.089-.163,5.418,5.418,0,0,1,1.02,3.472,5.375,5.375,0,0,1-.912,3.28A3.053,3.053,0,0,1,15.275,35.507ZM9.643,25.887l-0.009-.015a0.433,0.433,0,0,0-.379-0.195H0.469a0.432,0.432,0,0,0-.379.195l-0.008.015a0.406,0.406,0,0,0,.062.474,9.378,9.378,0,0,0,.719.663,0.342,0.342,0,0,0,.238.1,0.371,0.371,0,0,0,.282-0.147l0.254-.306A1.185,1.185,0,0,1,2,26.425a1.8,1.8,0,0,1,.608-0.1H4.242v8.361l-0.295.246a0.366,0.366,0,0,0-.146.283,0.341,0.341,0,0,0,.1.238c0.173,0.211.448,0.493,0.729,0.774a0.529,0.529,0,0,0,.542.09,0.1,0.1,0,0,0,.016-0.01,0.418,0.418,0,0,0,.248-0.446V26.323H7.117a1.8,1.8,0,0,1,.609.1,1.188,1.188,0,0,1,.362.251l0.254,0.306a0.371,0.371,0,0,0,.282.147,0.341,0.341,0,0,0,.238-0.1,9.327,9.327,0,0,0,.719-0.663A0.4,0.4,0,0,0,9.643,25.887ZM78.451,2.079a0.6,0.6,0,0,0-.542,0L71.555,5.75a0.6,0.6,0,0,1-.542,0l-1.182-.683a0.63,0.63,0,0,0-.208-0.083,0.348,0.348,0,0,0-.22.022l-1.183.683a0.363,0.363,0,0,0-.2.178,0.162,0.162,0,0,0,.087.2l2.906,1.678a0.6,0.6,0,0,0,.542,0L77.909,4.07a0.6,0.6,0,0,1,.542,0l1.181,0.683a0.6,0.6,0,0,0,.541,0l1.183-.683a0.166,0.166,0,0,0,0-.314ZM73.278,8.738a0.166,0.166,0,0,0,0,.313l1.183,0.683a0.606,0.606,0,0,0,.541,0l6.354-3.67c0.148-.087.148-0.228-0.1-0.374l-1.183-.683a0.681,0.681,0,0,0-.443.06Zm2.907-7.654a0.166,0.166,0,0,0,0-.313L75,0.087a0.6,0.6,0,0,0-.541,0L68.108,3.757a0.166,0.166,0,0,0,0,.313L69.29,4.754a0.6,0.6,0,0,0,.541,0Zm-0.31,18.105a0.6,0.6,0,0,0-.27.469v1.366a0.165,0.165,0,0,0,.271.156l6.354-3.671a0.58,0.58,0,0,0,.272-0.363V15.78c0.018-.3-0.123-0.349-0.272-0.263ZM75.82,13.244a0.5,0.5,0,0,0-.214.438V17.04a0.165,0.165,0,0,0,.27.157l6.354-3.672a0.166,0.166,0,0,1,.272.156v1.366a0.165,0.165,0,0,0,.27.156l1.181-.683a0.6,0.6,0,0,0,.272-0.469V10.695a0.166,0.166,0,0,0-.271-0.157L77.6,14.209a0.166,0.166,0,0,1-.271-0.157V12.686a0.165,0.165,0,0,0-.271-0.157Zm8.133-4.7c0.053-.038.131-0.082,0.19-0.128a0.334,0.334,0,0,0,.082-0.227V6.824a0.257,0.257,0,0,0-.11-0.249,0.249,0.249,0,0,0-.236.022L77.6,10.226a0.6,0.6,0,0,0-.187.175,0.46,0.46,0,0,0-.084.235v1.348a0.278,0.278,0,0,0,.075.241,0.178,0.178,0,0,0,.2-0.007ZM65.572,6.581a0.205,0.205,0,0,0-.317.2V8.077a0.466,0.466,0,0,0,.2.431l2.7,1.561a0.6,0.6,0,0,1,.271.47V18.26a0.426,0.426,0,0,0,.172.409l1.182,0.683c0.247,0.146.376,0.016,0.369-.2V11.534a0.165,0.165,0,0,1,.271-0.157l3.127,1.8a0.21,0.21,0,0,0,.331-0.219V11.652a0.6,0.6,0,0,0-.271-0.432Zm54.534,19.928a7.756,7.756,0,0,1,1.55.719,4.693,4.693,0,0,1,.548.433c0.13,0.114.264,0.232,0.407,0.338a0.542,0.542,0,0,0,.329.117,0.6,0.6,0,0,0,.549-0.425,0.523,0.523,0,0,0-.2-0.6,7.614,7.614,0,0,0-2.948-1.38,0.418,0.418,0,0,0-.5.344A0.4,0.4,0,0,0,120.106,26.509Zm2.1,4.384c0.13,0.114.264,0.232,0.407,0.337a0.539,0.539,0,0,0,.329.117,0.6,0.6,0,0,0,.549-0.425,0.523,0.523,0,0,0-.2-0.6,7.617,7.617,0,0,0-2.948-1.379,0.418,0.418,0,0,0-.5.344,0.394,0.394,0,0,0,.265.45,7.751,7.751,0,0,1,1.55.719A4.683,4.683,0,0,1,122.2,30.893Zm-1.755,4.575a0.53,0.53,0,0,0,.586.538,0.611,0.611,0,0,0,.07,0,7.457,7.457,0,0,0,3.334-1.218c2.4-1.527,4.088-4.187,5.484-6.338a0.362,0.362,0,0,0,.014-0.377,0.474,0.474,0,0,0-.405-0.235,0.388,0.388,0,0,0-.322.164,29.005,29.005,0,0,1-3.533,4.467,8.506,8.506,0,0,1-3.62,2.267l-0.372-.428a0.373,0.373,0,0,0-.3-0.106,0.34,0.34,0,0,0-.222.135,9.214,9.214,0,0,0-.571.727A0.861,0.861,0,0,0,120.449,35.468Zm21.583-6.9c0.131,0.133.266,0.27,0.41,0.4a0.619,0.619,0,0,0,.4.149,0.632,0.632,0,0,0,.464-0.208,0.605,0.605,0,0,0-.056-0.862A10.171,10.171,0,0,0,140.4,26.4a0.372,0.372,0,0,0-.52.249,0.362,0.362,0,0,0,.162.418l0.286,0.18a11.716,11.716,0,0,1,1.1.746A7.176,7.176,0,0,1,142.032,28.571Zm-1.585,6.9a0.529,0.529,0,0,0,.586.538,0.639,0.639,0,0,0,.07,0,7.457,7.457,0,0,0,3.334-1.218c2.4-1.527,4.087-4.187,5.484-6.338a0.362,0.362,0,0,0,.013-0.377,0.471,0.471,0,0,0-.4-0.235,0.387,0.387,0,0,0-.322.164,29.005,29.005,0,0,1-3.533,4.467,8.512,8.512,0,0,1-3.62,2.267l-0.373-.428a0.37,0.37,0,0,0-.3-0.106,0.338,0.338,0,0,0-.222.135,9.214,9.214,0,0,0-.571.727A0.861,0.861,0,0,0,140.447,35.468Z"/>
</svg>
