<svg xmlns="http://www.w3.org/2000/svg" width="172" height="21" viewBox="0 0 172 21">
  <defs>
    <style>
      .cls-1 {
        fill: #ffffff;
        fill-rule: evenodd;
      }
    </style>
  </defs>
  <path class="cls-1" d="M104.326,16.655a0.5,0.5,0,0,0-.511-0.335,0.551,0.551,0,0,0-.167.044,0.783,0.783,0,0,1-.223.049,1.632,1.632,0,0,1-1.073-.379L99.033,13.8h4.451c0.012,0,.022,0,0.033,0H103.8a0.433,0.433,0,0,0,.377-0.192l0.009-.015a0.4,0.4,0,0,0-.063-0.469,9.371,9.371,0,0,0-.715-0.654,0.339,0.339,0,0,0-.237-0.1,0.369,0.369,0,0,0-.281.144l-0.414.5H98.347V12.054H102.4a0.4,0.4,0,0,0,0-.8H98.347V10.5h4.6c0.012,0,.022,0,0.033,0h0.279a0.433,0.433,0,0,0,.377-0.192l0.008-.015a0.4,0.4,0,0,0-.062-0.468,9.316,9.316,0,0,0-.716-0.654,0.337,0.337,0,0,0-.236-0.1,0.371,0.371,0,0,0-.281.144l-0.415.5H99.81l0.969-1.4h2.706c0.012,0,.022,0,0.033,0H103.8a0.431,0.431,0,0,0,.377-0.192l0.009-.015a0.4,0.4,0,0,0-.063-0.469,9.426,9.426,0,0,0-.715-0.654,0.338,0.338,0,0,0-.237-0.1,0.37,0.37,0,0,0-.281.143l-0.414.5h-1.7l0.5-.76,0.623-.073a0.374,0.374,0,0,0,.275-0.156,0.332,0.332,0,0,0,.041-0.253,8.488,8.488,0,0,0-.145-0.866,0.4,0.4,0,0,0-.1-0.242,0.4,0.4,0,0,0-.283-0.151h-0.017c-0.01,0-.02,0-0.03,0a0.394,0.394,0,0,0-.327.187L99.8,7.509H99.512V5.032a0.437,0.437,0,0,0-.873,0V7.509H97.224V5.032a0.437,0.437,0,0,0-.873,0V7.509H95.5c0.442-.657-0.56-1.578-0.56-1.578a3.407,3.407,0,0,0-.811-0.562,0.372,0.372,0,0,0-.453.106,0.285,0.285,0,0,0,.013.38,5.543,5.543,0,0,1,.5.617,4.413,4.413,0,0,1,.267.534c0.062,0.141.11,0.286,0.185,0.426a0.418,0.418,0,0,0,.054.078H92.038a0.373,0.373,0,0,0-.292.125,0.4,0.4,0,0,0-.095.265,0.39,0.39,0,0,0,.387.406H95.03L96,9.705H92.458a0.371,0.371,0,0,0-.292.125,0.4,0.4,0,0,0-.095.265,0.389,0.389,0,0,0,.387.407h4.887v0.757H93.35a0.4,0.4,0,0,0,0,.8h3.995V13H92.038a0.373,0.373,0,0,0-.292.125,0.4,0.4,0,0,0-.095.264,0.39,0.39,0,0,0,.387.407h4.641c-0.98,1.681-2.985,2.258-4.93,2.815l-0.077.022a0.331,0.331,0,0,0-.238.377,0.35,0.35,0,0,0,.35.3,0.385,0.385,0,0,0,.061,0c2.083-.449,4.19-1.035,5.5-2.655v1.27l-0.294.243a0.367,0.367,0,0,0-.145.279,0.331,0.331,0,0,0,.1.235,9.417,9.417,0,0,0,.659.71,0.406,0.406,0,0,0,.472.061l0.015-.008a0.426,0.426,0,0,0,.193-0.374h0V15.4a0.015,0.015,0,0,1,0,0V14.5l3.406,2.3a2.439,2.439,0,0,0,1.728.568h0a1.96,1.96,0,0,0,.618-0.155,0.148,0.148,0,0,0,.032-0.016A0.449,0.449,0,0,0,104.326,16.655Zm-7.355-6.95L96,8.305h3.8l-0.969,1.4H96.971ZM85.282,5.546h0.33a0.323,0.323,0,0,1,.294.363v7.719a0.528,0.528,0,0,0,.545.546,0.57,0.57,0,0,0,.405-0.164,0.553,0.553,0,0,0,.152-0.41V6.094A1.185,1.185,0,0,0,85.7,4.779H85.282A0.361,0.361,0,0,0,85,4.9a0.392,0.392,0,0,0-.091.257A0.372,0.372,0,0,0,85.282,5.546Zm4.567,0.035a9.434,9.434,0,0,0-.659-0.71,0.461,0.461,0,0,0-.184-0.1,0.66,0.66,0,0,0-.219-0.038,0.546,0.546,0,0,0-.576.549v8.539a2.544,2.544,0,0,1-.763,1.991,5.7,5.7,0,0,1-1.213.84c-0.013.007-.313,0.154-0.485,0.253a0.462,0.462,0,0,0-.323.412,0.331,0.331,0,0,0,.341.293h0.01a1.337,1.337,0,0,0,.518-0.16,10.355,10.355,0,0,0,1.849-1.136,3.185,3.185,0,0,0,.921-1.145,4.662,4.662,0,0,0,.306-1.887V6.455l0.436-.36a0.366,0.366,0,0,0,.145-0.279A0.334,0.334,0,0,0,89.848,5.581Zm-5.614,7.681a0.428,0.428,0,0,0-.534-0.124l-0.014.009c-0.009.006-.015,0.013-0.023,0.019a0.39,0.39,0,0,0-.172.334v0.24H79.309a1.163,1.163,0,0,0-.438.071c0.126-.332.24-0.669,0.336-1h4.225a0.428,0.428,0,0,0,.256.087,0.389,0.389,0,0,0,.4-0.4V10.218l0.483-.4A0.366,0.366,0,0,0,84.72,9.54a0.332,0.332,0,0,0-.1-0.235c-0.159-.194-0.35-0.4-0.6-0.648a0.429,0.429,0,0,0-.534-0.124l-0.015.009a0.23,0.23,0,0,0-.023.019,0.391,0.391,0,0,0-.172.335V9.135H79.1a0.415,0.415,0,0,0-.045,0,0.68,0.68,0,0,0-.717.691v1.9l-0.009.334a3.641,3.641,0,0,1-.089.758,12.88,12.88,0,0,1-1.6,3.618,0.72,0.72,0,0,0-.109.569,0.26,0.26,0,0,0,.152.164,0.32,0.32,0,0,0,.117.021,0.615,0.615,0,0,0,.465-0.3,13.326,13.326,0,0,0,1.293-2.307v1.745l-0.008.444a0.644,0.644,0,0,0,.166.5,0.932,0.932,0,0,0,.648.139H83.8a0.457,0.457,0,0,0,.106.014,0.389,0.389,0,0,0,.4-0.4V16.906h0V14.823l0.482-.4a0.368,0.368,0,0,0,.145-0.279,0.335,0.335,0,0,0-.1-0.236C84.672,13.716,84.481,13.51,84.234,13.262Zm-4.9-1.945h3.947v0.692H79.33V11.317Zm3.947-1.387v0.591H79.33V9.931h3.947Zm0.214,6.684H79.529V14.536h3.962v2.078Zm1.851-8.585a4.1,4.1,0,0,0-.723-0.791,14.021,14.021,0,0,0-2.088-1.426c-0.292-.168-0.571-0.314-0.81-0.435a0.392,0.392,0,0,0,.192-0.342,0.363,0.363,0,0,0-.37-0.38s-0.724,0-.734.006a0.516,0.516,0,0,0-.394.123,0.785,0.785,0,0,0-.224.365l-0.116.308a7.249,7.249,0,0,1-.334.693,9.316,9.316,0,0,1-1.111,1.467A12.945,12.945,0,0,1,77.08,9.05a0.725,0.725,0,0,0-.334.5,0.266,0.266,0,0,0,.1.214,0.357,0.357,0,0,0,.231.078,0.736,0.736,0,0,0,.408-0.15,12.8,12.8,0,0,0,1.531-1.278h4.044a0.4,0.4,0,0,0,0-.8H79.769a10.138,10.138,0,0,0,.884-1.172,4.809,4.809,0,0,0,.387-0.714L81.069,5.75c0.125,0.075.511,0.319,0.856,0.567,0.318,0.228.57,0.436,0.767,0.593a9.976,9.976,0,0,1,1.032.971,6.006,6.006,0,0,1,.426.489c0.1,0.138.207,0.281,0.323,0.413a0.542,0.542,0,0,0,.3.184,0.631,0.631,0,0,0,.626-0.293A0.579,0.579,0,0,0,85.342,8.029Zm33.34,7.593a0.51,0.51,0,0,0-.494-0.389,0.58,0.58,0,0,0-.175.029,0.769,0.769,0,0,1-.233.03,1.571,1.571,0,0,1-1.067-.486l-2.778-2.578a6.063,6.063,0,0,0,1.715-3.785V8.424a0.64,0.64,0,0,0-.18-0.473,0.581,0.581,0,0,0-.417-0.188h0L114.5,7.747h-4.477l-0.339-.405a0.369,0.369,0,0,0-.281-0.144,0.338,0.338,0,0,0-.237.1,9.324,9.324,0,0,0-.715.655,0.4,0.4,0,0,0-.062.468,0.045,0.045,0,0,0,.009.015,0.431,0.431,0,0,0,.376.192h5.569a0.148,0.148,0,0,0,.017,0s0,0.015,0,.015c-0.143,1.609-1.058,2.978-2.881,4.31a21.646,21.646,0,0,1-3.044,1.821c-0.188.09-.378,0.183-0.567,0.277-0.466.23-.948,0.467-1.446,0.659a0.417,0.417,0,0,0-.251.523,0.376,0.376,0,0,0,.364.24,0.588,0.588,0,0,0,.181-0.03,25.735,25.735,0,0,0,5.515-2.788,9.626,9.626,0,0,0,.852-0.648,0.143,0.143,0,0,0,.151-0.067l2.793,2.593a2.515,2.515,0,0,0,1.723.738h0a2.035,2.035,0,0,0,.649-0.1,0.162,0.162,0,0,0,.034-0.013A0.462,0.462,0,0,0,118.682,15.622Zm11.3-6.547a0.469,0.469,0,0,0-.379-0.2,0.416,0.416,0,0,0-.38.243,1.452,1.452,0,0,1-1.378.6h-7.61a0.421,0.421,0,0,0-.439.429,0.429,0.429,0,0,0,.439.438h4.3c0,0.12,0,.222.006,0.325,0,0.123.008,0.247,0.008,0.4,0.013,2.427-2.832,4.533-4.629,5.29a0.151,0.151,0,0,0-.022.011,0.372,0.372,0,0,0-.157.428,0.387,0.387,0,0,0,.368.285,0.4,0.4,0,0,0,.164-0.035c2.608-1.042,5.421-3.152,5.492-5.939a5.521,5.521,0,0,0,.017-0.61c0-.049,0-0.1,0-0.156h2.064A2.324,2.324,0,0,0,130.008,9.5a0.089,0.089,0,0,0,.015-0.029A0.427,0.427,0,0,0,129.977,9.076Zm-8.443-1.223a0.432,0.432,0,0,0,.377.192h5.843a0.42,0.42,0,0,0,.439-0.429,0.428,0.428,0,0,0-.439-0.438h-4.581l-0.352-.421a0.372,0.372,0,0,0-.281-0.144,0.338,0.338,0,0,0-.237.1,9.611,9.611,0,0,0-.716.654,0.4,0.4,0,0,0-.062.469ZM140.146,10.5a0.518,0.518,0,0,0-.416-0.207,0.507,0.507,0,0,0-.451.275,1.373,1.373,0,0,1-1.263.548h-5.841l-0.245-.292a0.371,0.371,0,0,0-.281-0.144,0.336,0.336,0,0,0-.237.1,9.078,9.078,0,0,0-.715.654,0.4,0.4,0,0,0-.062.468,0.046,0.046,0,0,0,.008.015,0.433,0.433,0,0,0,.377.192h7a2.314,2.314,0,0,0,2.168-1.144,0.141,0.141,0,0,0,.016-0.032A0.464,0.464,0,0,0,140.146,10.5Zm18.687-.024h-3.427l-0.4-.48a0.373,0.373,0,0,0-.281-0.144,0.338,0.338,0,0,0-.237.1c-0.195.158-.4,0.347-0.652,0.593a0.419,0.419,0,0,0-.125.53,0.083,0.083,0,0,0,.008.015,0.261,0.261,0,0,0,.02.022,0.392,0.392,0,0,0,.336.171h4.243v1.695h-4.2a0.385,0.385,0,0,0-.384.4,0.377,0.377,0,0,0,.384.394h4.2V15.6h-4.33a0.386,0.386,0,0,0-.3.131,0.414,0.414,0,0,0-.1.271,0.382,0.382,0,0,0,.395.394h4.9a0.564,0.564,0,0,0,.544-0.569V11.048A0.533,0.533,0,0,0,158.833,10.479Zm-106.208,5.4-4.981-5.1L50.684,8.6l1.183-.841A1.009,1.009,0,0,0,51.956,7.7a5.676,5.676,0,0,0,.77-0.593,0.4,0.4,0,0,0,.061-0.469,0.088,0.088,0,0,0-.009-0.015A0.428,0.428,0,0,0,52.4,6.435H50.719a0.144,0.144,0,0,0-.13.082,0.142,0.142,0,0,0,.019.15L50.9,7.018a0.559,0.559,0,0,1-.108.727l-4.717,3.38V6.473h0a0.39,0.39,0,0,0-.243-0.334c-0.005,0-.01-0.007-0.015-0.009a0.522,0.522,0,0,0-.541.089c-0.279.277-.554,0.553-0.726,0.764a0.333,0.333,0,0,0-.1.235,0.369,0.369,0,0,0,.145.28l0.3,0.242v7.584l-0.3.243a0.363,0.363,0,0,0-.145.279,0.338,0.338,0,0,0,.1.235c0.173,0.209.448,0.487,0.726,0.765a0.531,0.531,0,0,0,.541.089,0.094,0.094,0,0,0,.015-0.01,0.409,0.409,0,0,0,.246-0.441l0-.015V11.907l0.592-.423,3.866,3.967,0,0L50.678,15.6a0.608,0.608,0,0,1,.188.374,0.4,0.4,0,0,1-.073.232l-0.184.219a0.143,0.143,0,0,0-.019.151,0.145,0.145,0,0,0,.13.081H52.4a0.425,0.425,0,0,0,.377-0.192,0.033,0.033,0,0,0,.009-0.014,0.4,0.4,0,0,0-.061-0.468C52.693,15.948,52.659,15.914,52.625,15.884ZM63.481,6.626A0.432,0.432,0,0,0,63.1,6.435H61.42a0.144,0.144,0,0,0-.13.082,0.139,0.139,0,0,0,.02.15l0.515,0.618a0.677,0.677,0,0,1,.112.521,1.042,1.042,0,0,1-.115.277l-2.688,4.14L56.708,7.572A0.767,0.767,0,0,1,56.6,7.2a0.532,0.532,0,0,1,.111-0.286l0.2-.245a0.141,0.141,0,0,0,.02-0.15,0.145,0.145,0,0,0-.13-0.082H55.126a0.433,0.433,0,0,0-.377.192l-0.008.015a0.4,0.4,0,0,0,.063.469,3.657,3.657,0,0,0,.551.44L58.5,13.573v1.752l-0.294.243a0.359,0.359,0,0,0-.144.279,0.336,0.336,0,0,0,.1.235c0.172,0.209.446,0.487,0.726,0.765a0.532,0.532,0,0,0,.541.089,0.076,0.076,0,0,0,.015-0.01,0.411,0.411,0,0,0,.247-0.441V12.533L62.411,8.34l0.561-.857a3.382,3.382,0,0,0,.456-0.373,0.4,0.4,0,0,0,.061-0.469Zm5.627-.442a4.625,4.625,0,0,0-3.377,1.357,5.453,5.453,0,0,0-1.548,3.995,5.436,5.436,0,0,0,1.563,4.049,4.605,4.605,0,0,0,3.363,1.356A4.525,4.525,0,0,0,72.456,15.6a5.489,5.489,0,0,0,1.563-4.091A5.417,5.417,0,0,0,72.47,7.541,4.607,4.607,0,0,0,69.108,6.185Zm0,9.953a3.063,3.063,0,0,1-2.8-1.653,5.879,5.879,0,0,1-.692-2.975,5.374,5.374,0,0,1,.894-3.216,3.174,3.174,0,0,1,5.069-.161,5.317,5.317,0,0,1,1.016,3.431,5.28,5.28,0,0,1-.908,3.241A3.05,3.05,0,0,1,69.108,16.137ZM37.542,6.185a4.627,4.627,0,0,0-3.377,1.357,5.451,5.451,0,0,0-1.548,3.995,5.436,5.436,0,0,0,1.563,4.049,4.605,4.605,0,0,0,3.362,1.356A4.526,4.526,0,0,0,40.89,15.6a5.488,5.488,0,0,0,1.563-4.091,5.418,5.418,0,0,0-1.547-3.968A4.611,4.611,0,0,0,37.542,6.185Zm0,9.953a3.063,3.063,0,0,1-2.8-1.653,5.874,5.874,0,0,1-.693-2.975,5.375,5.375,0,0,1,.894-3.216,3.174,3.174,0,0,1,5.069-.161,5.323,5.323,0,0,1,1.016,3.431,5.28,5.28,0,0,1-.909,3.241A3.049,3.049,0,0,1,37.542,16.137Zm-5.61-9.506a0.132,0.132,0,0,0-.009-0.015,0.431,0.431,0,0,0-.377-0.192H22.794a0.431,0.431,0,0,0-.377.192l-0.008.015a0.4,0.4,0,0,0,.062.468,9.24,9.24,0,0,0,.716.655,0.343,0.343,0,0,0,.237.1A0.371,0.371,0,0,0,23.7,7.713l0.253-.3a1.183,1.183,0,0,1,.361-0.248,1.808,1.808,0,0,1,.606-0.1h1.628v8.262l-0.294.243a0.361,0.361,0,0,0-.145.279,0.335,0.335,0,0,0,.1.235c0.172,0.209.446,0.487,0.727,0.765a0.53,0.53,0,0,0,.54.089,0.1,0.1,0,0,0,.016-0.01,0.412,0.412,0,0,0,.247-0.441V7.063h1.67a1.807,1.807,0,0,1,.607.1,1.189,1.189,0,0,1,.361.248l0.253,0.3a0.371,0.371,0,0,0,.281.145,0.343,0.343,0,0,0,.237-0.1A9.243,9.243,0,0,0,31.869,7.1,0.4,0.4,0,0,0,31.932,6.632Zm110.29,0.615a7.793,7.793,0,0,1,1.545.711,4.66,4.66,0,0,1,.545.428c0.129,0.113.263,0.229,0.405,0.334a0.543,0.543,0,0,0,.329.116,0.6,0.6,0,0,0,.546-0.42,0.513,0.513,0,0,0-.2-0.589,7.6,7.6,0,0,0-2.936-1.363,0.415,0.415,0,0,0-.5.34A0.389,0.389,0,0,0,142.221,7.247Zm2.09,4.332c0.129,0.112.263,0.229,0.405,0.333a0.541,0.541,0,0,0,.329.116,0.6,0.6,0,0,0,.546-0.42,0.513,0.513,0,0,0-.2-0.59,7.6,7.6,0,0,0-2.936-1.363,0.415,0.415,0,0,0-.5.34,0.389,0.389,0,0,0,.263.445,7.763,7.763,0,0,1,1.545.71A4.644,4.644,0,0,1,144.311,11.579ZM142.563,16.1a0.526,0.526,0,0,0,.584.531,0.639,0.639,0,0,0,.07,0,7.46,7.46,0,0,0,3.32-1.2c2.387-1.509,4.072-4.138,5.463-6.263a0.354,0.354,0,0,0,.014-0.372,0.472,0.472,0,0,0-.4-0.233,0.388,0.388,0,0,0-.321.162,28.62,28.62,0,0,1-3.519,4.414,8.486,8.486,0,0,1-3.606,2.24l-0.371-.423a0.373,0.373,0,0,0-.3-0.1,0.34,0.34,0,0,0-.221.134c-0.185.2-.331,0.406-0.569,0.719A0.849,0.849,0,0,0,142.563,16.1Zm21.5-6.815c0.13,0.131.264,0.267,0.408,0.4a0.618,0.618,0,0,0,.4.147,0.633,0.633,0,0,0,.462-0.206,0.6,0.6,0,0,0-.056-0.852,10.165,10.165,0,0,0-2.84-1.629,0.371,0.371,0,0,0-.518.246,0.356,0.356,0,0,0,.162.413l0.284,0.178a11.626,11.626,0,0,1,1.093.737A7.338,7.338,0,0,1,164.063,9.284Zm-1.58,6.815a0.526,0.526,0,0,0,.584.531,0.611,0.611,0,0,0,.07,0,7.46,7.46,0,0,0,3.321-1.2c2.387-1.509,4.072-4.138,5.463-6.263a0.354,0.354,0,0,0,.013-0.372,0.47,0.47,0,0,0-.4-0.233,0.386,0.386,0,0,0-.32.162,28.687,28.687,0,0,1-3.52,4.414,8.482,8.482,0,0,1-3.6,2.24l-0.372-.423a0.372,0.372,0,0,0-.3-0.1,0.34,0.34,0,0,0-.221.134,8.913,8.913,0,0,0-.569.719A0.857,0.857,0,0,0,162.483,16.1ZM13.145,2.046a0.6,0.6,0,0,0-.54,0L6.276,5.673a0.6,0.6,0,0,1-.54,0L4.559,5a0.625,0.625,0,0,0-.207-0.082,0.347,0.347,0,0,0-.219.022l-1.178.675a0.36,0.36,0,0,0-.2.176,0.16,0.16,0,0,0,.087.194L5.736,7.642a0.6,0.6,0,0,0,.54,0l6.329-3.628a0.6,0.6,0,0,1,.54,0l1.177,0.675a0.6,0.6,0,0,0,.538,0l1.179-.675a0.164,0.164,0,0,0,0-.31ZM7.992,8.626a0.164,0.164,0,0,0,0,.31L9.171,9.61a0.609,0.609,0,0,0,.539,0l6.329-3.627c0.148-.086.148-0.225-0.1-0.369l-1.179-.675a0.682,0.682,0,0,0-.441.06Zm2.9-7.564a0.163,0.163,0,0,0,0-.31L9.71,0.078a0.6,0.6,0,0,0-.539,0L2.841,3.7a0.163,0.163,0,0,0,0,.31L4.02,4.689a0.6,0.6,0,0,0,.539,0ZM10.579,18.953a0.592,0.592,0,0,0-.269.464v1.35a0.164,0.164,0,0,0,.27.154l6.33-3.628a0.574,0.574,0,0,0,.271-0.359v-1.35c0.018-.3-0.123-0.345-0.271-0.26ZM10.524,13.08a0.488,0.488,0,0,0-.213.433V16.83a0.164,0.164,0,0,0,.269.155l6.33-3.628a0.165,0.165,0,0,1,.271.155v1.35a0.164,0.164,0,0,0,.269.155l1.177-.675a0.594,0.594,0,0,0,.271-0.464V10.56a0.165,0.165,0,0,0-.27-0.155L12.3,14.033a0.165,0.165,0,0,1-.27-0.155v-1.35a0.164,0.164,0,0,0-.27-0.155Zm8.1-4.643c0.053-.038.13-0.081,0.189-0.127A0.328,0.328,0,0,0,18.9,8.085V6.735a0.253,0.253,0,0,0-.11-0.246,0.249,0.249,0,0,0-.235.022L12.3,10.1a0.59,0.59,0,0,0-.186.173,0.451,0.451,0,0,0-.084.232v1.332a0.274,0.274,0,0,0,.074.238,0.178,0.178,0,0,0,.2-0.007ZM0.316,6.5A0.2,0.2,0,0,0,0,6.7V7.973A0.459,0.459,0,0,0,.2,8.4L2.885,9.941a0.593,0.593,0,0,1,.27.464v7.63a0.42,0.42,0,0,0,.171.4L4.5,19.115c0.246,0.145.375,0.016,0.368-.193V11.389a0.165,0.165,0,0,1,.27-0.155l3.115,1.778A0.209,0.209,0,0,0,8.585,12.8v-1.29a0.592,0.592,0,0,0-.27-0.427Z"/>
</svg>
